<?xml version="1.0" encoding="UTF-8"?>
<svg width="24px" height="24px" viewBox="0 0 24 24" version="1.1" xmlns="http://www.w3.org/2000/svg" xmlns:xlink="http://www.w3.org/1999/xlink">
    <!-- Generator: Sketch 48.2 (47327) - http://www.bohemiancoding.com/sketch -->
    <title>bell-icon-white</title>
    <desc>Created with Sketch.</desc>
    <defs></defs>
    <g id="Assets" stroke="none" stroke-width="1" fill="none" fill-rule="evenodd">
        <g id="bell-icon-white" fill="#FFFFFF" fill-rule="nonzero">
            <path d="M19,3 C17.894531,3 17,3.894531 17,5 C17,5.351563 17.09375,5.683594 17.25,5.96875 L16.6875,5.40625 C14.886719,3.605469 12.105469,3.488281 10.40625,5.1875 L8.09375,7.59375 C6.695313,8.992188 4.8125,9.6875 2.8125,9.6875 L2,10.40625 L13.3125,21.6875 L14.09375,20.90625 C13.992188,19.007813 14.792969,17.085938 16.09375,15.6875 L18.5,13.3125 C20.199219,11.613281 20.113281,8.800781 18.3125,7 L18.0625,6.75 C18.34375,6.898438 18.660156,7 19,7 C20.105469,7 21,6.105469 21,5 C21,3.894531 20.105469,3 19,3 Z M13.1875,5.875 C13.9375,5.800781 14.699219,6.105469 15.5,6.90625 C15.398438,7.007813 13.90625,7.101563 12.40625,8.5 L10.8125,10.09375 C9.613281,11.292969 8.707031,12.59375 6.90625,12.59375 L5.5,11.1875 C7.199219,11.289063 8.207031,9.886719 9.40625,8.6875 L11,7.09375 C11.699219,6.394531 12.4375,5.949219 13.1875,5.875 Z M7.6875,17.59375 C7.386719,17.792969 7.011719,18.105469 6.8125,18.40625 C5.914063,19.40625 5.886719,20.800781 6.6875,21.5 C7.488281,22.199219 8.914063,22 9.8125,21 C10.011719,20.800781 10.210938,20.488281 10.3125,20.1875 L7.6875,17.59375 Z" id="Shape"></path>
        </g>
    </g>
</svg>